<svg width="12" height="16" viewBox="0 0 12 16" fill="none" xmlns="http://www.w3.org/2000/svg">
<path d="M9.86068 13.5594H2.39744C2.14789 13.5594 1.89549 13.6658 1.69954 13.8759C1.51618 14.0726 1.40136 14.344 1.38533 14.6398H9.33907C9.52614 14.6398 9.64177 14.6236 9.71135 14.604C9.7436 14.595 9.76102 14.5867 9.76839 14.5826C9.77193 14.5806 9.77461 14.5785 9.77461 14.5785L9.77565 14.5775L9.77772 14.5744C9.77947 14.572 9.78326 14.5673 9.78705 14.5601C9.79476 14.5454 9.80547 14.5184 9.81713 14.4743C9.84153 14.3821 9.86066 14.2384 9.86068 14.0189V13.5594ZM10.6187 1.98111C10.6187 1.53551 10.5448 1.43465 10.5378 1.4266C10.5378 1.4266 10.5362 1.42488 10.5306 1.4215C10.5241 1.41758 10.5079 1.40957 10.4767 1.40005C10.4091 1.37946 10.2918 1.36024 10.0961 1.36022H3.11815C2.68107 1.36022 2.39804 1.36077 2.18278 1.37963C1.97781 1.39762 1.8979 1.42818 1.85405 1.45213C1.63374 1.5726 1.51603 1.75127 1.44859 2.05157C1.37242 2.39088 1.38118 2.78315 1.38118 3.28312V12.4391C1.69399 12.2856 2.03927 12.2002 2.39744 12.2002H10.0971C10.2353 12.2002 10.3412 12.19 10.4196 12.1756C10.4923 12.1613 10.522 12.1456 10.5295 12.1409C10.5323 12.1392 10.5345 12.1384 10.5409 12.1276C10.5661 12.0855 10.6187 11.9459 10.6187 11.5782V1.98111ZM12 11.5782C12 12.0184 11.9461 12.4591 11.7283 12.821C11.5991 13.0355 11.4306 13.1917 11.2409 13.3041V14.0189C11.2409 14.5543 11.1625 15.1135 10.7763 15.5139C10.3786 15.9262 9.82277 16 9.33907 16H1.25985C0.510694 15.9999 0.0011197 15.3665 0.00094322 14.7102V3.28312C0.00094322 2.85928 -0.0166868 2.27921 0.100495 1.75747C0.226416 1.19703 0.522293 0.62526 1.18415 0.263467C1.46475 0.110206 1.75996 0.0518869 2.06041 0.0255297C2.35101 6.7303e-05 2.70584 -6.67621e-08 3.11815 0H10.0961C10.622 2.60762e-05 11.1828 0.09452 11.5707 0.525913C11.9372 0.933623 12 1.48544 12 1.98111V11.5782Z" fill="#EEEEEE"/>
<path d="M7.72998 4.26324C7.98145 3.95534 8.43319 3.91115 8.73874 4.1645C9.04428 4.41801 9.08822 4.87326 8.83671 5.18122L5.93316 8.73701C5.80241 8.8971 5.6091 8.99261 5.40349 8.9996C5.19795 9.00652 4.99984 8.92361 4.85873 8.77282L3.19542 6.99655C2.92396 6.70648 2.93686 6.24921 3.22448 5.97549C3.51229 5.7019 3.96597 5.7149 4.23755 6.00479L5.34212 7.18535L7.72998 4.26324Z" fill="#EEEEEE"/>
</svg>
