<svg width="18" height="12" viewBox="0 0 18 12" fill="none" xmlns="http://www.w3.org/2000/svg">
<path d="M0 0.54329C0 0.243239 0.264408 0 0.590571 0H9.60943C9.93559 0 10.2 0.243239 10.2 0.54329C10.2 0.84334 9.93559 1.08658 9.60943 1.08658H0.590572C0.264408 1.08658 0 0.84334 0 0.54329Z" fill="#EEEEEE"/>
<path d="M0 3.43816C0 3.13811 0.264408 2.89488 0.590571 2.89488H4.65514C4.98131 2.89488 5.24571 3.13811 5.24571 3.43816C5.24571 3.73822 4.98131 3.98145 4.65514 3.98145H0.590571C0.264407 3.98145 0 3.73822 0 3.43816Z" fill="#EEEEEE"/>
<path d="M0 6.33304C0 6.03299 0.264408 5.78975 0.590571 5.78975H4.65514C4.98131 5.78975 5.24571 6.03299 5.24571 6.33304C5.24571 6.63309 4.98131 6.87633 4.65514 6.87633H0.590571C0.264407 6.87633 0 6.63309 0 6.33304Z" fill="#EEEEEE"/>
<path d="M15.3974 6.12547C15.3974 4.40256 13.9942 2.99054 12.2439 2.99045C10.4936 2.99045 9.09045 4.40251 9.09045 6.12547C9.09049 7.84839 10.4936 9.26048 12.2439 9.26048C13.9942 9.26039 15.3973 7.84834 15.3974 6.12547ZM16.6868 6.12547C16.6868 7.13335 16.3508 8.0596 15.7868 8.80296L17.8155 10.8907C18.065 11.1476 18.0609 11.5612 17.8068 11.8136C17.5527 12.0656 17.1446 12.0615 16.8951 11.8047L14.8616 9.71113C14.1262 10.2477 13.2212 10.5644 12.2439 10.5644C9.79853 10.5644 7.80004 8.58594 7.8 6.12547C7.8 3.66496 9.79851 1.68551 12.2439 1.68551C14.6892 1.68559 16.6868 3.66501 16.6868 6.12547Z" fill="#EEEEEE"/>
</svg>
