<svg width="14" height="10" viewBox="0 0 14 10" fill="none" xmlns="http://www.w3.org/2000/svg">
<path d="M1.27273 0.656566C1.27273 1.01918 0.987818 1.31313 0.636364 1.31313C0.28491 1.31313 0 1.01918 0 0.656566C0 0.293954 0.28491 0 0.636364 0C0.987818 0 1.27273 0.293954 1.27273 0.656566Z" fill="#EEEEEE"/>
<path d="M2.25175 0.656566C2.25175 0.293954 2.53666 0 2.88811 0H13.3636C13.7151 0 14 0.293954 14 0.656566C14 1.01918 13.7151 1.31313 13.3636 1.31313H2.88811C2.53666 1.31313 2.25175 1.01918 2.25175 0.656566Z" fill="#EEEEEE"/>
<path d="M1.27273 5C1.27273 5.36261 0.987818 5.65657 0.636364 5.65657C0.28491 5.65657 0 5.36261 0 5C0 4.63739 0.28491 4.34343 0.636364 4.34343C0.987818 4.34343 1.27273 4.63739 1.27273 5Z" fill="#EEEEEE"/>
<path d="M2.25175 5C2.25175 4.63739 2.53666 4.34343 2.88811 4.34343H13.3636C13.7151 4.34343 14 4.63739 14 5C14 5.36261 13.7151 5.65657 13.3636 5.65657H2.88811C2.53666 5.65657 2.25175 5.36261 2.25175 5Z" fill="#EEEEEE"/>
<path d="M1.27273 9.34343C1.27273 9.70604 0.987818 10 0.636364 10C0.28491 10 0 9.70604 0 9.34343C0 8.98082 0.28491 8.68687 0.636364 8.68687C0.987818 8.68687 1.27273 8.98082 1.27273 9.34343Z" fill="#EEEEEE"/>
<path d="M2.25175 9.34343C2.25175 8.98082 2.53666 8.68687 2.88811 8.68687H13.3636C13.7151 8.68687 14 8.98082 14 9.34343C14 9.70604 13.7151 10 13.3636 10H2.88811C2.53666 10 2.25175 9.70604 2.25175 9.34343Z" fill="#EEEEEE"/>
</svg>
