<svg width="12" height="16" viewBox="0 0 12 16" fill="none" xmlns="http://www.w3.org/2000/svg">
<path d="M10.6773 2.40797C10.6773 1.82919 10.2212 1.36022 9.65839 1.36022H2.34161C1.77878 1.36022 1.32274 1.82919 1.32274 2.40797V13.592C1.32274 14.1708 1.77878 14.6398 2.34161 14.6398H9.65839C10.2212 14.6398 10.6773 14.1708 10.6773 13.592V2.40797ZM8.47865 10.1874C8.84369 10.1874 9.14002 10.4921 9.14002 10.8675C9.14002 11.2429 8.84369 11.5476 8.47865 11.5476H4.93148C4.56643 11.5476 4.27011 11.2429 4.27011 10.8675C4.27011 10.4921 4.56643 10.1874 4.93148 10.1874H8.47865ZM7.79047 7.24636C8.15551 7.24636 8.45184 7.55108 8.45184 7.92647C8.45184 8.30186 8.15551 8.60659 7.79047 8.60659H3.3565C2.99146 8.60659 2.69513 8.30186 2.69513 7.92647C2.69513 7.55108 2.99146 7.24636 3.3565 7.24636H7.79047ZM8.38034 4.31351C8.74538 4.31351 9.04171 4.61823 9.04171 4.99362C9.04171 5.36901 8.74538 5.67373 8.38034 5.67373H3.94638C3.58133 5.67373 3.285 5.36901 3.285 4.99362C3.285 4.61823 3.58133 4.31351 3.94638 4.31351H8.38034ZM12 13.592C12 14.9216 10.9513 16 9.65839 16H2.34161C1.04869 16 0 14.9216 0 13.592V2.40797C0 1.07841 1.04869 0 2.34161 0H9.65839C10.9513 0 12 1.07841 12 2.40797V13.592Z" fill="#EEEEEE"/>
</svg>
