<svg width="14" height="18" viewBox="0 0 14 18" fill="none" xmlns="http://www.w3.org/2000/svg">
<path d="M6.31812 16.2772V15.7422C6.31812 15.382 6.60879 15.0896 6.96688 15.0896C7.32497 15.0896 7.61564 15.382 7.61564 15.7422V16.2772C7.61578 16.5079 7.80128 16.6945 8.03061 16.6947H8.56248C8.92057 16.6947 9.21124 16.9871 9.21124 17.3473C9.21124 17.7075 8.92057 17.9999 8.56248 17.9999H8.03061C7.08511 17.9997 6.31826 17.2283 6.31812 16.2772ZM12.7025 16.2772V15.7422C12.7025 15.382 12.9932 15.0896 13.3512 15.0896C13.7093 15.0896 14 15.382 14 15.7422V16.2772C13.9999 17.2283 13.233 17.9997 12.2875 17.9999H11.7556C11.3976 17.9999 11.1069 17.7075 11.1069 17.3473C11.1069 16.9871 11.3976 16.6947 11.7556 16.6947H12.2875C12.5168 16.6945 12.7023 16.5079 12.7025 16.2772ZM6.31812 12.5321V11.9971C6.31826 11.046 7.08511 10.2746 8.03061 10.2744H8.56248C8.92057 10.2744 9.21124 10.5668 9.21124 10.927C9.21124 11.2872 8.92057 11.5796 8.56248 11.5796H8.03061C7.80128 11.5798 7.61579 11.7664 7.61564 11.9971V12.5321C7.61564 12.8923 7.32497 13.1847 6.96688 13.1847C6.60879 13.1847 6.31812 12.8923 6.31812 12.5321ZM12.7025 12.5321V11.9971C12.7023 11.7664 12.5168 11.5798 12.2875 11.5796H11.7556C11.3976 11.5796 11.1069 11.2872 11.1069 10.927C11.1069 10.5668 11.3976 10.2744 11.7556 10.2744H12.2875C13.233 10.2746 13.9999 11.046 14 11.9971V12.5321C14 12.8923 13.7093 13.1847 13.3512 13.1847C12.9932 13.1847 12.7025 12.8923 12.7025 12.5321Z" fill="white"/>
<path fill-rule="evenodd" clip-rule="evenodd" d="M8.83185e-09 2.3724V11.6761C8.83185e-09 11.9735 9.31323e-09 12.2365 0.0185082 12.4499C0.0377105 12.6709 0.0806113 12.8961 0.19872 13.1138C0.373456 13.4358 0.652563 13.698 0.995547 13.8619L1.17089 13.9324C1.34712 13.9912 1.52605 14.0167 1.70276 14.0302C1.92996 14.0476 2.20673 14.0476 2.52307 14.0476L2.52686 12.8303C2.18761 12.8303 1.97121 12.83 1.80796 12.8175C1.6525 12.8056 1.60306 12.7855 1.58391 12.7764C1.48513 12.7291 1.4044 12.6532 1.35402 12.5605C1.34459 12.543 1.32378 12.4961 1.31116 12.3511C1.29786 12.1978 1.29752 11.9949 1.29752 11.6761V2.3724C1.29752 2.05389 1.29786 1.85073 1.31116 1.69746C1.32367 1.5536 1.34413 1.50566 1.35402 1.48711C1.40438 1.39426 1.48501 1.31856 1.58391 1.27128C1.60236 1.26247 1.65242 1.24293 1.80796 1.23104C1.97119 1.21857 2.18733 1.21823 2.52686 1.21823H4.96604V3.25312C4.96604 3.54757 4.96604 3.81477 4.98455 4.02684C5.00385 4.24774 5.0468 4.47326 5.16476 4.6908C5.33917 5.01277 5.61893 5.27468 5.96159 5.43891C6.1935 5.54976 6.43333 5.5901 6.6688 5.6081C6.88546 5.62466 7.14709 5.62462 7.4455 5.62457C7.4612 5.62457 7.477 5.62457 7.4929 5.62457H9.66031V6.78989H10.9569V5.01181C10.9569 4.99653 10.9569 4.98133 10.9569 4.9662C10.9571 4.74274 10.9573 4.53571 10.9072 4.33687L10.8682 4.20792C10.8241 4.08125 10.7632 3.95851 10.689 3.84392L10.5896 3.70948C10.4921 3.59181 10.3766 3.48354 10.2542 3.36888C10.242 3.35749 10.2298 3.34604 10.2175 3.33452L7.40523 0.695106C7.39178 0.682475 7.37842 0.669895 7.36513 0.65738C7.20177 0.503573 7.04892 0.359658 6.8646 0.253376C6.70102 0.158632 6.52134 0.0890254 6.33468 0.0466858L6.16323 0.0183345C6.00393 -0.000230253 5.83953 -0.000108526 5.66387 2.15325e-05C5.64922 3.23821e-05 5.63449 4.32897e-05 5.61968 4.34121e-05H2.52686C2.20977 4.3286e-05 1.93021 4.31761e-05 1.70276 0.01742C1.46726 0.0354301 1.22747 0.075739 0.995547 0.186613C0.652432 0.350654 0.372469 0.612584 0.197746 0.93472C0.0800005 1.15242 0.0377152 1.37754 0.0185082 1.59869C9.31323e-09 1.81201 8.83185e-09 2.07539 8.83185e-09 2.3724ZM6.26357 3.25312C6.26357 3.57163 6.26385 3.77407 6.27721 3.92715C6.28986 4.07216 6.31038 4.11959 6.32007 4.1375C6.37028 4.23019 6.45135 4.3069 6.54996 4.35425L6.61035 4.37345C6.64457 4.38097 6.69622 4.38854 6.774 4.39449C6.93723 4.40696 7.15339 4.40729 7.4929 4.40729H9.52004C9.48062 4.3671 9.41576 4.30391 9.30086 4.19603L6.48761 1.5557C6.37226 1.4474 6.30609 1.38583 6.26357 1.34901V3.25312Z" fill="white"/>
</svg>
