<svg width="14" height="18" viewBox="0 0 14 18" fill="none" xmlns="http://www.w3.org/2000/svg">
<path d="M11.7953 15.2843H2.69112C2.31611 15.2843 1.95969 15.4332 1.6999 15.6922C1.44094 15.9505 1.29865 16.2972 1.29834 16.6541L1.30127 16.6581C1.30648 16.6633 1.31594 16.6681 1.33051 16.6681H10.9942C11.4938 16.6681 11.6326 16.5807 11.6706 16.5442C11.6977 16.518 11.7953 16.3985 11.7953 15.8862V15.2843ZM9.69984 5.11935C9.94346 4.85027 10.3534 4.83466 10.616 5.08435C10.8787 5.33426 10.8947 5.75572 10.6511 6.02525L6.97081 10.0968C6.83171 10.2507 6.62943 10.329 6.42598 10.3068C6.22269 10.2846 6.04116 10.1651 5.93671 9.98484L4.62775 7.72207C4.44486 7.40611 4.54597 6.9979 4.85387 6.81017C5.16183 6.62256 5.55974 6.72634 5.74275 7.04215L6.60824 8.53799L9.69984 5.11935ZM12.7027 2.11378C12.7027 1.62177 12.617 1.49623 12.5858 1.46385C12.5548 1.43177 12.4217 1.33186 11.8996 1.33186H3.55369C3.03548 1.33186 2.6842 1.33181 2.41334 1.35386C2.14965 1.37535 2.01808 1.41459 1.92894 1.45985C1.60534 1.62429 1.45886 1.85841 1.37924 2.18777C1.28749 2.56773 1.29834 3.0062 1.29834 3.56163V14.3474C1.71636 14.0929 2.1968 13.9535 2.69112 13.9534H11.9016C12.0792 13.9534 12.2222 13.9417 12.3343 13.9224C12.5471 13.8836 12.5863 13.8252 12.6023 13.8004C12.641 13.7407 12.7027 13.5788 12.7027 13.1715V2.11378ZM14 13.1715C14 13.6643 13.9343 14.1471 13.6823 14.5364C13.5246 14.7799 13.3201 14.9457 13.0926 15.0593V15.8862C13.0926 16.4914 12.9934 17.0957 12.5595 17.5141C12.1361 17.9222 11.5491 18 10.9942 18H1.33051C0.613929 18 0.00108144 17.4149 0.00108144 16.6551L0.00108145 3.56163C0.00107647 3.08912 -0.01959 2.44586 0.119989 1.8678C0.271805 1.23948 0.620823 0.638996 1.35292 0.266972C1.65205 0.115001 1.96879 0.0548185 2.31003 0.0269973C2.64425 -0.000242637 3.05603 7.44008e-08 3.55369 7.44008e-08H11.8996C12.4989 7.44008e-08 13.0924 0.0981758 13.5068 0.526945C13.921 0.955465 14 1.55373 14 2.11378V13.1715Z" fill="white"/>
</svg>
