<svg width="18" height="18" viewBox="0 0 18 18" fill="none" xmlns="http://www.w3.org/2000/svg">
<path d="M5.18619 0.095929C5.57107 -0.062391 5.97319 -0.0101078 6.32387 0.146192L7.09558 0.489989C7.30034 0.581252 7.42976 0.602543 7.49825 0.602577L8.08952 0.603582C8.29335 0.603629 8.49547 0.606593 8.69506 0.612629L9.27206 0.629719C9.37219 0.632747 9.49386 0.61626 9.64109 0.567393L10.2772 0.35629C10.6497 0.232725 11.0414 0.248263 11.4027 0.435705L11.9532 0.722202C11.9798 0.736052 12.0445 0.75938 12.1886 0.737281L12.9502 0.620671C13.3649 0.557034 13.7838 0.638608 14.1276 0.926269L14.6363 1.35149C14.8743 1.55076 15.0663 1.78995 15.2102 2.06422L15.5232 2.66134C15.5736 2.75735 15.6397 2.82802 15.7271 2.8835L16.2918 3.24237C16.4943 3.37093 16.6594 3.55492 16.7536 3.79225C16.8449 4.02202 16.8519 4.25686 16.8199 4.46878L16.7078 5.21267L17.2674 5.59266C17.4657 5.72708 17.6544 5.93253 17.7272 6.22396C17.7986 6.5099 17.7324 6.77422 17.6334 6.97991L17.3021 7.66851C17.3009 7.67096 17.3 7.67335 17.299 7.67554L17.6426 8.20028C17.6817 8.25996 17.7146 8.30669 17.7394 8.34303C17.8741 8.44691 17.949 8.58869 17.98 8.71296C18.0136 8.84778 17.9966 8.95774 17.9882 9.00147C17.9703 9.09452 17.9356 9.16397 17.926 9.18342C17.8992 9.23776 17.8679 9.28715 17.8485 9.31612C17.8038 9.38272 17.7411 9.46728 17.6681 9.5624L17.2827 10.062L17.6283 10.7255C17.8173 11.0884 17.8841 11.5115 17.7027 11.9298L17.4509 12.5108C17.3815 12.6708 17.3231 12.843 17.2756 13.0275L17.1084 13.6759C17.0352 13.9601 16.9186 14.2276 16.7598 14.4751L16.3989 15.038C16.0835 15.5294 15.5447 15.6242 15.093 15.5738L14.1775 15.4713L13.9665 15.986C13.884 16.1868 13.7488 16.3866 13.5353 16.5308C13.3187 16.6771 13.0761 16.7291 12.8472 16.7238L12.1683 16.7088C12.0615 16.7063 11.9961 16.7289 11.9481 16.759L11.4292 17.0847C11.2435 17.2012 11.0471 17.3155 10.842 17.4275L10.2599 17.7452C9.89025 17.9468 9.48038 17.9747 9.08652 17.8266L8.46263 17.5924C8.44004 17.5839 8.4057 17.5725 8.31889 17.6095L7.63384 17.902C7.40254 18.0005 7.1158 18.0445 6.82135 17.9392C6.53821 17.8378 6.34942 17.6342 6.22702 17.4396L5.79071 16.7459C5.67827 16.5671 5.5892 16.4906 5.54197 16.4615L5.04959 16.1569C4.86021 16.0399 4.68035 15.9115 4.51031 15.7719L4.07094 15.411C4.01566 15.3656 3.93011 15.3187 3.79467 15.2853L3.14326 15.1245C2.84963 15.0521 2.57618 14.9316 2.32771 14.7636L1.78742 14.3987C1.50849 14.2101 1.29164 13.9599 1.15027 13.6558L0.884204 13.0828C0.798504 12.8984 0.709833 12.7151 0.618133 12.5339L0.332694 11.97C0.201868 11.7116 0.119403 11.4368 0.0870114 11.1497L0.0166709 10.5234C-0.0148372 10.2442 -0.00173563 9.96538 0.0564286 9.69007L0.187935 9.06983C0.23118 8.86528 0.272414 8.66675 0.311286 8.47472L0.42852 7.89268C0.449794 7.78758 0.45256 7.66725 0.4275 7.52676L0.313324 6.88441C0.245538 6.50443 0.319756 6.13084 0.546773 5.80778L0.90969 5.29209C0.918758 5.27909 0.947874 5.23192 0.934156 5.09405L0.857699 4.32001C0.812478 3.86473 0.964935 3.41833 1.3827 3.12576L1.94441 2.73271C2.21264 2.54487 2.51304 2.41924 2.83743 2.35373L3.50311 2.21802L3.73249 1.45403C3.84681 1.0709 4.07177 0.729845 4.44201 0.514115L5.02308 0.176349L5.18619 0.095929ZM5.13318 1.66714C5.11687 1.67664 5.07246 1.70396 5.03429 1.832L4.80594 2.59901C4.74268 2.81122 4.63298 3.02089 4.45526 3.19312C4.27435 3.36843 4.05417 3.47368 3.82118 3.52083L3.10961 3.66458C2.95994 3.69481 2.83564 3.74899 2.72937 3.82341L2.20742 4.18731L2.20844 4.18932L2.2849 4.96337C2.32238 5.34005 2.25773 5.72382 2.02494 6.05507L1.66305 6.56976C1.65102 6.58688 1.64865 6.59674 1.64776 6.60093C1.64674 6.60565 1.64417 6.62063 1.64979 6.65219L1.76397 7.29455C1.81531 7.58233 1.81715 7.87092 1.75989 8.15404L1.64164 8.73709C1.60196 8.93311 1.56024 9.13519 1.51625 9.34326L1.38474 9.96249C1.35567 10.1 1.34976 10.2373 1.36537 10.3757L1.43571 11.0019C1.45045 11.1325 1.48745 11.2545 1.54683 11.3719L1.83227 11.9358C1.93076 12.1303 2.02571 12.327 2.11771 12.5249L2.38378 13.0979C2.42018 13.1762 2.4736 13.2398 2.55505 13.2949L3.09534 13.6608C3.20719 13.7364 3.3317 13.792 3.47253 13.8267L4.12395 13.9865C4.42305 14.0602 4.702 14.1875 4.93949 14.3826L5.37886 14.7435C5.50132 14.8441 5.63168 14.9373 5.77032 15.0229L6.2627 15.3275C6.54371 15.5011 6.7653 15.7567 6.94368 16.0403L7.28927 16.5901L7.78063 16.381C8.15057 16.2234 8.55348 16.1939 8.94686 16.3418L9.57075 16.5761C9.57921 16.5792 9.58493 16.5804 9.58808 16.5811C9.59096 16.58 9.59634 16.5789 9.60337 16.5751L10.1855 16.2574C10.3683 16.1576 10.5397 16.0566 10.7003 15.9558L11.2202 15.6301C11.5182 15.4432 11.8528 15.3629 12.1988 15.3708L12.7493 15.3828L12.9787 14.8269L13.0225 14.7324C13.133 14.5191 13.3085 14.3428 13.5455 14.2358C13.7972 14.1224 14.0633 14.1115 14.2948 14.1373L15.2449 14.2439C15.267 14.2463 15.2859 14.2445 15.301 14.2449L15.6129 13.7593C15.695 13.6314 15.7552 13.4942 15.7933 13.3462L15.9605 12.6978C16.0243 12.4502 16.1046 12.2123 16.2031 11.9851L16.4509 11.4131C16.4489 11.4027 16.4427 11.3778 16.4213 11.3367L16.0614 10.6451C15.9598 10.4499 15.892 10.2225 15.9055 9.97456C15.9192 9.72164 16.0152 9.49738 16.1583 9.31109L16.4804 8.89089L16.1369 8.36816C15.8666 7.95602 15.8818 7.49743 16.0757 7.09451L16.3245 6.5768L15.8932 6.28528C15.6983 6.15323 15.5339 5.97064 15.4365 5.7354C15.3406 5.50353 15.3278 5.26474 15.3611 5.04379L15.4712 4.31196L14.9921 4.00838C14.7026 3.82457 14.4752 3.57686 14.3172 3.27555L14.0042 2.67943C13.9397 2.55652 13.858 2.45586 13.7575 2.37182L13.2499 1.9466C13.2476 1.94468 13.2457 1.94317 13.2448 1.94258L13.2437 1.94157H13.2427L13.2407 1.94057C13.2358 1.93942 13.2116 1.93457 13.1591 1.94258L12.3976 2.06019C12.0347 2.11589 11.6616 2.08312 11.3211 1.90639L10.7706 1.61989C10.7646 1.61679 10.7608 1.61628 10.7594 1.61587L10.7574 1.61487C10.7571 1.61485 10.7424 1.61399 10.7094 1.62492L10.0743 1.83602C9.79845 1.92762 9.51592 1.97626 9.23128 1.96771L8.65326 1.94962C8.46781 1.94401 8.27983 1.94162 8.08952 1.94157H7.49825C7.17252 1.9415 6.84694 1.84753 6.53693 1.70936L5.7642 1.36556C5.72728 1.34913 5.7028 1.34405 5.68979 1.34144L5.13318 1.66714ZM11.4027 6.11639C11.6574 5.84543 12.0871 5.82901 12.3619 6.0802C12.6367 6.33145 12.6524 6.75517 12.3976 7.02615L8.52685 11.1437C8.38136 11.2984 8.16979 11.3761 7.95699 11.3538C7.74427 11.3314 7.55447 11.2115 7.44524 11.0301L6.06799 8.74312C5.87674 8.42553 5.98262 8.01512 6.3045 7.82633C6.62672 7.63765 7.0439 7.74181 7.23524 8.05955L8.14763 9.57648L11.4027 6.11639Z" fill="white"/>
</svg>
