<svg width="16" height="16" viewBox="0 0 16 16" fill="none" xmlns="http://www.w3.org/2000/svg">
<path d="M14.797 8C14.797 4.24591 11.7541 1.20298 8 1.20298C4.24591 1.20298 1.20298 4.24591 1.20298 8C1.20298 11.7541 4.24591 14.797 8 14.797C11.7541 14.797 14.797 11.7541 14.797 8ZM7.69564 4.14902C7.69564 3.81707 7.9643 3.54761 8.29623 3.54753C8.62822 3.54753 8.89772 3.81702 8.89772 4.14902V8.88417C8.89771 9.04359 8.83434 9.19683 8.72161 9.30955C8.60888 9.42223 8.45562 9.48567 8.29623 9.48566L4.74509 9.48476C4.41313 9.48475 4.14366 9.21611 4.1436 8.88417C4.14361 8.55218 4.4131 8.28268 4.74509 8.28268H7.69564V4.14902ZM16 8C16 12.4181 12.4181 16 8 16C3.58192 16 0 12.4181 0 8C0 3.58192 3.58192 0 8 0C12.4181 0 16 3.58192 16 8Z" fill="white"/>
</svg>
